<svg xmlns="http://www.w3.org/2000/svg" xmlns:xlink="http://www.w3.org/1999/xlink" viewBox="0 0 238.84 239.91"><defs><style>.cls-1{filter:url(#filter);}.cls-2{fill:url(#linear-gradient);}.cls-3{fill:url(#linear-gradient-2);}.cls-4{fill:#fff;fill-rule:evenodd;}</style><filter id="filter"><feOffset dy="13.16" input="SourceAlpha"/><feGaussianBlur stdDeviation="9.87" result="blur"/><feFlood/><feComposite operator="in" in2="blur"/><feComposite in="SourceGraphic"/></filter><linearGradient id="linear-gradient" x1="119.42" y1="235.76" x2="119.42" y2="4.15" gradientUnits="userSpaceOnUse"><stop offset="0" stop-color="#20b038"/><stop offset="1" stop-color="#60d66a"/></linearGradient><linearGradient id="linear-gradient-2" x1="119.42" y1="239.91" x2="119.42" gradientUnits="userSpaceOnUse"><stop offset="0" stop-color="#f9f9f9"/><stop offset="1" stop-color="#fff"/></linearGradient></defs><g id="Capa_2" data-name="Capa 2"><g id="OBJECTS"><g class="cls-1"><path id="shape_3" data-name="shape 3" class="cls-2" d="M4.14,235.76l16.28-59.47a114.81,114.81,0,1,1,99.48,57.47h-.05A114.69,114.69,0,0,1,65,219.8Z"/><path id="shape_2" data-name="shape 2" class="cls-3" d="M0,239.91l16.87-61.6a118.93,118.93,0,1,1,103.05,59.54h0A118.91,118.91,0,0,1,63,223.38Zm66-38.06L69.57,204a98.75,98.75,0,0,0,50.31,13.77h0a98.83,98.83,0,1,0-83.73-46.31l2.35,3.74-10,36.46Z"/><path id="shape_1" data-name="shape 1" class="cls-4" d="M90.2,69.18c-2.23-5-4.57-5.05-6.69-5.14C81.78,64,79.79,64,77.82,64a10.93,10.93,0,0,0-7.93,3.72c-2.72,3-10.4,10.16-10.4,24.78s10.65,28.75,12.13,30.73,20.56,32.94,50.76,44.85c25.1,9.9,30.21,7.93,35.66,7.44s17.58-7.19,20.05-14.13,2.48-12.88,1.74-14.13-2.73-2-5.7-3.46-17.58-8.68-20.3-9.67-4.71-1.48-6.69,1.49-7.67,9.66-9.4,11.64-3.47,2.24-6.44.75-12.54-4.62-23.9-14.75a89.77,89.77,0,0,1-16.53-20.57c-1.73-3-.18-4.58,1.31-6.06,1.33-1.34,3-3.47,4.45-5.21a20,20,0,0,0,3-5,5.49,5.49,0,0,0-.24-5.21C98.61,89.75,92.84,75.05,90.2,69.18Z"/></g></g></g></svg>